<svg xmlns="http://www.w3.org/2000/svg" xmlns:xlink="http://www.w3.org/1999/xlink" width="100" zoomAndPan="magnify" viewBox="0 0 75 74.999997" height="100" preserveAspectRatio="xMidYMid meet" version="1.0"><rect x="-7.5" width="90" fill="#ffffff" y="-7.5" height="89.999996" fill-opacity="1"/><rect x="-7.5" width="90" fill="#ffffff" y="-7.5" height="89.999996" fill-opacity="1"/><path fill="#000000" d="M 36.289062 40.714844 C 37.292969 40.539062 38.359375 40.273438 39.464844 39.921875 L 39.46875 39.917969 L 39.765625 39.820312 C 41.796875 39.148438 43.945312 38.371094 45.667969 37.445312 C 42.53125 32.921875 37.304688 29.953125 31.382812 29.953125 L 29.363281 29.953125 C 19.761719 29.953125 11.976562 37.738281 11.976562 47.339844 C 11.976562 49.953125 14.097656 52.074219 16.710938 52.074219 L 34.628906 52.074219 C 34.625 51.914062 34.605469 51.761719 34.605469 51.601562 L 34.605469 42.703125 C 34.605469 41.71875 35.3125 40.882812 36.289062 40.714844 Z M 30.375 28.644531 C 36.542969 28.644531 41.546875 23.640625 41.546875 17.46875 C 41.546875 11.296875 36.542969 6.296875 30.375 6.296875 C 24.203125 6.296875 19.199219 11.296875 19.199219 17.46875 C 19.199219 23.640625 24.203125 28.644531 30.375 28.644531 Z M 62.636719 42.003906 C 61.453125 41.800781 60.210938 41.476562 58.980469 41.066406 C 55.429688 39.898438 51.929688 38.546875 50.085938 36.601562 C 49.945312 36.453125 49.757812 36.378906 49.574219 36.378906 C 49.390625 36.378906 49.207031 36.453125 49.066406 36.601562 C 47.21875 38.546875 43.71875 39.894531 40.175781 41.066406 L 40.167969 41.074219 C 38.929688 41.480469 37.6875 41.800781 36.511719 42.007812 C 36.167969 42.066406 35.917969 42.355469 35.917969 42.707031 L 35.917969 51.605469 C 35.917969 58.855469 41.339844 65.160156 49.300781 68.34375 C 49.390625 68.378906 49.480469 68.394531 49.574219 68.394531 C 49.667969 68.394531 49.761719 68.378906 49.847656 68.34375 C 57.8125 65.167969 63.234375 58.863281 63.234375 51.605469 L 63.234375 42.703125 C 63.234375 42.355469 62.980469 42.0625 62.636719 42.003906 Z M 55.929688 49.878906 L 48.839844 56.972656 C 48.5625 57.246094 48.191406 57.402344 47.800781 57.402344 C 47.410156 57.402344 47.039062 57.246094 46.761719 56.972656 L 43.214844 53.421875 C 42.644531 52.851562 42.644531 51.921875 43.214844 51.347656 C 43.789062 50.777344 44.71875 50.777344 45.292969 51.347656 L 47.800781 53.859375 L 53.855469 47.800781 C 54.429688 47.230469 55.359375 47.230469 55.929688 47.800781 C 56.503906 48.375 56.503906 49.304688 55.929688 49.878906 Z M 55.929688 49.878906 " fill-opacity="1" fill-rule="nonzero"/></svg>