<svg xmlns="http://www.w3.org/2000/svg" xmlns:xlink="http://www.w3.org/1999/xlink" width="100" zoomAndPan="magnify" viewBox="0 0 75 93.749996" height="125" preserveAspectRatio="xMidYMid meet" version="1.0"><defs><clipPath id="10e4d7b430"><path d="M 0.101562 0 L 74.898438 0 L 74.898438 93.5 L 0.101562 93.5 Z M 0.101562 0 " clip-rule="nonzero"/></clipPath></defs><g clip-path="url(#10e4d7b430)"><path fill="#ffffff" d="M 0.101562 0 L 74.898438 0 L 74.898438 93.5 L 0.101562 93.5 Z M 0.101562 0 " fill-opacity="1" fill-rule="nonzero"/><path fill="#ffffff" d="M 0.101562 0 L 74.898438 0 L 74.898438 93.5 L 0.101562 93.5 Z M 0.101562 0 " fill-opacity="1" fill-rule="nonzero"/></g><path fill="#000000" d="M 36.070312 41.054688 C 37.160156 40.863281 38.316406 40.574219 39.515625 40.195312 L 39.519531 40.191406 L 39.839844 40.082031 C 42.042969 39.355469 44.371094 38.515625 46.242188 37.507812 C 42.839844 32.605469 37.175781 29.390625 30.753906 29.390625 L 28.566406 29.390625 C 18.15625 29.390625 9.71875 37.828125 9.71875 48.238281 C 9.71875 51.070312 12.015625 53.367188 14.847656 53.367188 L 34.273438 53.367188 C 34.269531 53.195312 34.25 53.027344 34.25 52.855469 L 34.25 43.210938 C 34.25 42.144531 35.015625 41.234375 36.070312 41.054688 Z M 29.660156 27.96875 C 36.351562 27.96875 41.773438 22.546875 41.773438 15.855469 C 41.773438 9.164062 36.351562 3.742188 29.660156 3.742188 C 22.96875 3.742188 17.546875 9.164062 17.546875 15.855469 C 17.546875 22.542969 22.96875 27.96875 29.660156 27.96875 Z M 64.636719 42.453125 C 63.355469 42.230469 62.011719 41.882812 60.675781 41.4375 C 56.828125 40.167969 53.03125 38.703125 51.03125 36.59375 C 50.878906 36.433594 50.675781 36.355469 50.476562 36.355469 C 50.277344 36.355469 50.078125 36.433594 49.925781 36.59375 C 47.925781 38.703125 44.128906 40.167969 40.285156 41.4375 L 40.277344 41.445312 C 38.9375 41.882812 37.59375 42.230469 36.316406 42.453125 C 35.945312 42.519531 35.671875 42.835938 35.671875 43.214844 L 35.671875 52.859375 C 35.671875 60.722656 41.546875 67.554688 50.183594 71.007812 C 50.277344 71.042969 50.375 71.0625 50.476562 71.0625 C 50.578125 71.0625 50.679688 71.042969 50.773438 71.007812 C 59.410156 67.5625 65.285156 60.730469 65.285156 52.859375 L 65.285156 43.210938 C 65.285156 42.832031 65.011719 42.515625 64.636719 42.453125 Z M 57.367188 50.988281 L 49.679688 58.675781 C 49.382812 58.976562 48.976562 59.144531 48.554688 59.144531 C 48.132812 59.144531 47.726562 58.976562 47.429688 58.675781 L 43.582031 54.832031 C 42.964844 54.210938 42.964844 53.203125 43.582031 52.582031 C 44.207031 51.960938 45.214844 51.960938 45.835938 52.582031 L 48.554688 55.304688 L 55.117188 48.738281 C 55.742188 48.117188 56.746094 48.117188 57.367188 48.738281 C 57.992188 49.359375 57.992188 50.367188 57.367188 50.988281 Z M 57.367188 50.988281 " fill-opacity="1" fill-rule="nonzero"/></svg>